<svg xmlns="http://www.w3.org/2000/svg" viewBox="0 0 1000 1000">
  <path d="M500 150c-193.3 0-350 156.7-350 350s156.7 350 350 350 350-156.7 350-350-156.7-350-350-350z" fill="none"/>
  <path d="M650 450c0 0 50-100 150-100" fill="none" stroke="#009245" stroke-width="20"/>
  <path d="M350 450c0 0-50-100-150-100" fill="none" stroke="#009245" stroke-width="20"/>
  <path d="M500 300c-110.5 0-200 89.5-200 200s89.5 200 200 200 200-89.5 200-200-89.5-200-200-200z" fill="none"/>
  <path d="M450 500c0 27.6-22.4 50-50 50s-50-22.4-50-50 22.4-50 50-50 50 22.4 50 50z" fill="#262262"/>
  <path d="M650 500c0 27.6-22.4 50-50 50s-50-22.4-50-50 22.4-50 50-50 50 22.4 50 50z" fill="#262262"/>
  <path d="M500 600c-55.2 0-100-44.8-100-100s44.8-100 100-100 100 44.8 100 100-44.8 100-100 100z" fill="#009245"/>
  <path d="M500 550c-27.6 0-50-22.4-50-50s22.4-50 50-50 50 22.4 50 50-22.4 50-50 50z" fill="#262262"/>
</svg>